<svg xmlns="http://www.w3.org/2000/svg" xmlns:xlink="http://www.w3.org/1999/xlink" width="1046pt" height="364pt" viewBox="0 0 1046.16 363.79"><g id="graph0" class="graph" transform="scale(1 1) rotate(0) translate(4 359.7932)"><title>G</title><polygon fill="#fff" stroke="transparent" points="-4 4 -4 -359.793 1042.155 -359.793 1042.155 4 -4 4"/><g id="node1" class="node"><title>tuf</title><ellipse cx="954.431" cy="-179.993" fill="none" stroke="red" rx="83.949" ry="18"/><text x="954.431" y="-175.793" fill="#000" font-family="Times,serif" font-size="14" text-anchor="middle">TUF Root of Trust</text></g><g id="node2" class="node"><title>client</title><ellipse cx="34.643" cy="-157.993" fill="none" stroke="#000" rx="34.786" ry="18"/><text x="34.643" y="-153.793" fill="#000" font-family="Times,serif" font-size="14" text-anchor="middle">Client</text></g><g id="edge9" class="edge"><title>tuf-&gt;client</title><path fill="none" stroke="#000" d="M911.9197,-195.7095C893.895,-201.7569 872.5134,-208.1314 852.7064,-211.9932 591.1498,-262.9893 520.528,-241.3119 254.0874,-245.9932 179.9648,-247.2955 151.7733,-282.5613 87.2858,-245.9932 64.6614,-233.1639 50.7151,-206.3181 42.9103,-185.6318"/><polygon fill="#000" stroke="#000" points="46.167 -184.343 39.561 -176.06 39.56 -186.655 46.167 -184.343"/><text x="464.273" y="-250.193" fill="#000" font-family="Times,serif" font-size="14" text-anchor="middle">(2) Root key material</text></g><g id="edge8" class="edge"><title>client-&gt;tuf</title><path fill="none" stroke="#000" d="M36.3772,-175.9816C40.1418,-203.8491 51.8217,-256.6711 87.2858,-279.9932 318.4957,-432.0426 433.2245,-278.7717 709.867,-271.9932 773.357,-270.4375 793.5088,-290.9941 852.7064,-267.9932 885.7107,-255.1696 915.305,-226.6647 933.9502,-205.5534"/><polygon fill="#000" stroke="#000" points="936.686 -207.74 940.544 -197.872 931.375 -203.18 936.686 -207.74"/><text x="464.273" y="-343.193" fill="#000" font-family="Times,serif" font-size="14" text-anchor="middle">(1) TUF update</text></g><g id="node3" class="node"><title>idp</title><ellipse cx="464.273" cy="-215.993" fill="none" stroke="red" rx="102.509" ry="18"/><text x="464.273" y="-211.793" fill="#000" font-family="Times,serif" font-size="14" text-anchor="middle">OIDC Identity Provider</text></g><g id="edge10" class="edge"><title>client-&gt;idp</title><path fill="none" stroke="red" d="M51.6846,-174.175C61.342,-182.2829 74.1049,-191.3437 87.2858,-195.9932 177.4937,-227.8137 287.3744,-229.8525 365.1772,-225.7247"/><polygon fill="red" stroke="red" points="365.675 -229.202 375.458 -225.134 365.274 -222.214 365.675 -229.202"/><text x="170.687" y="-229.193" fill="#000" font-family="Times,serif" font-size="14" text-anchor="middle">(3) Log in with account</text></g><g id="node4" class="node"><title>fulcio</title><ellipse cx="307.803" cy="-133.993" fill="none" stroke="red" rx="35.933" ry="18"/><text x="307.803" y="-129.793" fill="#000" font-family="Times,serif" font-size="14" text-anchor="middle">Fulcio</text></g><g id="edge12" class="edge"><title>client-&gt;fulcio</title><path fill="none" stroke="#000" d="M61.5083,-146.5384C69.6419,-143.5814 78.6979,-140.7852 87.2858,-139.1932 147.0202,-128.1201 217.4043,-128.774 262.2994,-130.8729"/><polygon fill="#000" stroke="#000" points="262.144 -134.369 272.31 -131.385 262.502 -127.379 262.144 -134.369"/><text x="170.687" y="-143.193" fill="#000" font-family="Times,serif" font-size="14" text-anchor="middle">(5) Request certificate</text></g><g id="node6" class="node"><title>rekor</title><ellipse cx="307.803" cy="-57.993" fill="none" stroke="red" rx="34.771" ry="18"/><text x="307.803" y="-53.793" fill="#000" font-family="Times,serif" font-size="14" text-anchor="middle">Rekor</text></g><g id="edge16" class="edge"><title>client-&gt;rekor</title><path fill="none" stroke="#000" d="M39.9131,-140.0622C47.008,-119.4766 61.7804,-86.5759 87.2858,-71.1932 141.787,-38.3229 218.2931,-42.5214 265.373,-49.5424"/><polygon fill="#000" stroke="#000" points="265.1 -53.043 275.528 -51.169 266.207 -46.131 265.1 -53.043"/><text x="170.687" y="-76.193" fill="#000" font-family="Times,serif" font-size="14" text-anchor="middle">(9) Signature</text></g><g id="edge11" class="edge"><title>idp-&gt;client</title><path fill="none" stroke="#000" d="M397.6488,-202.2068C346.8901,-191.8647 281.2522,-178.8822 254.0874,-175.1932 193.965,-167.0286 124.0093,-162.3754 79.5437,-160.0186"/><polygon fill="#000" stroke="#000" points="79.525 -156.513 69.359 -159.495 79.166 -163.504 79.525 -156.513"/><text x="170.687" y="-179.193" fill="#000" font-family="Times,serif" font-size="14" text-anchor="middle">(4) OIDC Token</text></g><g id="edge15" class="edge"><title>fulcio-&gt;client</title><path fill="none" stroke="#000" d="M284.8393,-120.1709C275.6189,-115.3786 264.6792,-110.605 254.0874,-108.1932 181.8036,-91.7341 156.1637,-80.7761 87.2858,-108.1932 74.1888,-113.4065 62.4718,-123.5963 53.4358,-133.4076"/><polygon fill="#000" stroke="#000" points="50.683 -131.24 46.789 -141.093 55.978 -135.819 50.683 -131.24"/><text x="170.687" y="-112.193" fill="#000" font-family="Times,serif" font-size="14" text-anchor="middle">(8) Certificate + SCT</text></g><g id="node5" class="node"><title>ctlog</title><ellipse cx="647.447" cy="-69.993" fill="none" stroke="red" rx="41.194" ry="18"/><text x="647.447" y="-65.793" fill="#000" font-family="Times,serif" font-size="14" text-anchor="middle">CT Log</text></g><g id="edge13" class="edge"><title>fulcio-&gt;ctlog</title><path fill="none" stroke="#000" d="M319.9463,-116.7852C332.2643,-99.928 350.9738,-76.0768 361.519,-71.1932 401.93,-52.4785 526.1525,-59.4079 596.8512,-65.2278"/><polygon fill="#000" stroke="#000" points="596.618 -68.721 606.877 -66.075 597.208 -61.745 596.618 -68.721"/><text x="464.273" y="-76.193" fill="#000" font-family="Times,serif" font-size="14" text-anchor="middle">(6) Submit certificate</text></g><g id="edge14" class="edge"><title>ctlog-&gt;fulcio</title><path fill="none" stroke="#000" d="M610.6883,-78.5826C597.0093,-81.6835 581.3361,-85.1239 567.0276,-87.9932 491.7693,-103.0852 403.7003,-118.1713 352.0119,-126.7651"/><polygon fill="#000" stroke="#000" points="351.156 -123.359 341.863 -128.447 352.301 -130.265 351.156 -123.359"/><text x="464.273" y="-128.193" fill="#000" font-family="Times,serif" font-size="14" text-anchor="middle">(7) SCT</text></g><g id="node7" class="node"><title>rekormonitor</title><ellipse cx="954.431" cy="-22.993" fill="none" stroke="red" rx="68.903" ry="18"/><text x="954.431" y="-18.793" fill="#000" font-family="Times,serif" font-size="14" text-anchor="middle">Rekor Monitor</text></g><g id="node8" class="node"><title>fulciomonitor</title><ellipse cx="954.431" cy="-76.993" fill="none" stroke="red" rx="69.564" ry="18"/><text x="954.431" y="-72.793" fill="#000" font-family="Times,serif" font-size="14" text-anchor="middle">Fulcio Monitor</text></g><g id="edge17" class="edge"><title>rekor-&gt;client</title><path fill="none" stroke="#000" d="M289.1869,-42.6135C279.3882,-35.5134 266.7914,-27.8576 254.0874,-24.1932 182.8573,-3.6474 148.5558,17.5421 87.2858,-24.1932 69.1657,-36.5361 51.1266,-94.9377 41.5889,-130.3781"/><polygon fill="#000" stroke="#000" points="38.181 -129.574 39.021 -140.136 44.951 -131.356 38.181 -129.574"/><text x="170.687" y="-29.193" fill="#000" font-family="Times,serif" font-size="14" text-anchor="middle">(10) Signed Entry Timestamp</text></g><g id="edge19" class="edge"><title>rekormonitor-&gt;rekor</title><path fill="none" stroke="#000" d="M894.577,-31.9285C880.8518,-33.6193 866.2991,-35.1282 852.7064,-35.9932 797.3343,-39.5171 781.6361,-49.6817 727.867,-35.9932 719.0397,-33.746 718.6943,-28.4405 709.867,-26.1932 656.0979,-12.5047 640.4815,-24.3592 585.0276,-26.1932 485.5273,-29.4839 459.3508,-22.5519 361.519,-40.9932 356.423,-41.9538 351.134,-43.2456 345.9504,-44.6903"/><polygon fill="#000" stroke="#000" points="344.768 -41.391 336.191 -47.61 346.774 -48.097 344.768 -41.391"/><text x="647.447" y="-31.193" fill="#000" font-family="Times,serif" font-size="14" text-anchor="middle">Continous Monitoring</text></g><g id="edge18" class="edge"><title>fulciomonitor-&gt;ctlog</title><path fill="none" stroke="#000" d="M909.8209,-63.1272C892.2136,-58.3291 871.6897,-53.563 852.7064,-51.1932 797.6496,-44.3201 782.9858,-44.8362 727.867,-51.1932 716.0792,-52.5527 703.5084,-54.998 691.8929,-57.6848"/><polygon fill="#000" stroke="#000" points="690.87 -54.331 681.975 -60.087 692.518 -61.135 690.87 -54.331"/><text x="790.287" y="-56.193" fill="#000" font-family="Times,serif" font-size="14" text-anchor="middle">Continous Monitoring</text></g></g></svg>